<svg width="100" height="100" xmlns="http://www.w3.org/2000/svg">
 <!-- Created with Method Draw - http://github.com/duopixel/Method-Draw/ -->
 <g>
  <title>background</title>
  <rect fill="#fff" id="canvas_background" height="102" width="102" y="-1" x="-1"/>
  <g display="none" overflow="visible" y="0" x="0" height="100%" width="100%" id="canvasGrid">
   <rect fill="url(#gridpattern)" stroke-width="0" y="0" x="0" height="100%" width="100%"/>
  </g>
 </g>
 <g>
  <title>Layer 1</title>
  <rect stroke="#000" id="svg_34" height="267" width="1096.000022" y="290.453125" x="-109.500031" stroke-opacity="null" stroke-width="1.5" fill="#9ACEE6"/>
  <path stroke="#000" id="svg_14" d="m1201.655671,79.842717c-1.270059,1.646851 -6.739551,3.735654 -7.444991,3.735654l-5.995583,0c-0.995057,0 -2.49362,0.227954 -3.199061,0.750542c0.081039,0.083738 0.162079,0.167476 0.240461,0.252765c0.542034,0.587718 1.809436,1.415796 2.930701,1.415796c0.52742,0 0.960515,-0.178331 1.328514,-0.54895c1.564989,-1.561562 2.37804,-1.744546 2.849662,-1.744546c0.559304,0 1.040226,0.299286 1.3232,0.823426c0.531406,0.970743 0.140822,2.240772 -0.257732,3.236326c-0.953873,2.363278 -4.062595,4.917292 -7.433035,4.917292c-0.002657,0 -0.002657,0 -0.005314,0c-0.470294,0 -0.931288,-0.051173 -1.372355,-0.15352l0,5.041349c0,1.150625 1.372355,3.927941 5.535917,3.927941s5.254272,-5.739167 5.254272,-6.726968l0,-6.996791c2.962586,-1.812777 5.994254,-2.799026 7.444991,-6.040004c1.364384,-3.045589 0.069083,-3.537163 -1.199648,-1.890312zm-9.312882,7.328642c1.057497,-2.634652 -0.070411,-2.634652 -2.045911,-0.659051s-4.869003,0.162824 -5.856089,-0.907164c-0.987086,-1.068437 -1.974172,-1.891863 -3.738438,-1.809675c-1.764266,0.082187 -5.925172,-0.249664 -8.325796,-0.907164c-2.397967,-0.659051 -6.503075,-4.652122 -6.841846,-3.620901c-0.353385,1.069988 0.280316,1.811226 1.551704,3.620901c1.268731,1.812777 6.742208,4.307865 6.742208,4.307865s0,5.354592 0,7.576755c0,2.225265 3.949672,5.598053 5.994254,5.598053s3.597615,-1.646851 3.597615,-2.800577l0,-6.996791c3.386382,2.062441 7.864802,-0.766049 8.922299,-3.402252zm-2.125622,-5.878731c2.316928,0 4.196775,-2.1927 4.196775,-4.897133c0,-2.705984 -1.879847,-4.898684 -4.196775,-4.898684s-4.195447,2.1927 -4.195447,4.898684c0,2.704433 1.878519,4.897133 4.195447,4.897133zm-11.057221,0c2.316928,0 4.195447,-2.1927 4.195447,-4.897133c0,-2.705984 -1.878519,-4.898684 -4.195447,-4.898684c-2.318257,0 -4.196775,2.1927 -4.196775,4.898684c0,2.704433 1.87719,4.897133 4.196775,4.897133z" stroke-opacity="null" stroke-width="1.5" fill="#9ACEE6"/>
  <path stroke="#000" id="svg_15" d="m1055.786496,99.545056c-4.278983,0 -7.749441,-3.296054 -7.749441,-7.360001l0,0c0.002583,-3.261707 2.239589,-6.009441 5.330324,-6.972374l0,0c0.107201,-2.772267 2.501778,-4.985174 5.445274,-4.987627l0,0c0.942849,0 1.827577,0.233067 2.596063,0.634187l0,0c1.635132,-2.582134 4.610918,-4.31296 8.018089,-4.314187l0,0c5.097841,0.002453 9.243792,3.870134 9.361325,8.683574l0,0c3.050697,0.98624 5.246372,3.721707 5.248955,6.956427l0,0c0,4.063947 -3.470458,7.360001 -7.749441,7.360001l0,0l-20.501147,0l0,0zm21.441413,-12.174668c-0.659994,-0.116533 -1.11592,-0.689387 -1.052632,-1.323573l0,0c0.021957,-0.20976 0.034872,-0.41216 0.034872,-0.609653l0,0c-0.009041,-3.556107 -3.037781,-6.433867 -6.782053,-6.438774l0,0c-2.904749,-0.002453 -5.375529,1.739414 -6.342918,4.182934l0,0c-0.157572,0.396213 -0.524379,0.69184 -0.966097,0.7728l0,0c-0.439135,0.08096 -0.896352,-0.063787 -1.197289,-0.37904l0,0c-0.537295,-0.55568 -1.273492,-0.896693 -2.10914,-0.896693l0,0c-1.582178,0.002453 -2.862127,1.21808 -2.867293,2.720747l0,0c0,0.166827 0.021957,0.33856 0.058121,0.520107l0,0c0.063287,0.326293 -0.010333,0.6624 -0.210526,0.93472l0,0c-0.200194,0.273547 -0.506297,0.455093 -0.848564,0.50784l0,0c-2.45399,0.383947 -4.329355,2.390774 -4.326771,4.822027l0,0c0.005166,2.709707 2.3145,4.900534 5.167586,4.907894l0,0l20.502439,0c2.853086,-0.00736 5.158545,-2.198187 5.165003,-4.907894l0,0c0.005166,-2.400587 -1.821119,-4.391467 -4.224737,-4.81344l0,0" stroke-opacity="null" stroke-width="1.5" fill="#9ACEE6"/>
  <path id="svg_17" d="m1275.376983,147.529914c-2.548498,-1.611696 -6.096445,-1.09453 -7.923326,1.157955l-14.328256,17.672932c-1.304274,1.607366 -0.885923,3.846676 0.936026,4.999127c1.821944,1.1503 4.354323,0.780692 5.658597,-0.828793l10.116878,-12.477031l-1.318802,-0.835381l-10.115337,12.478104l0,0c-0.783487,0.963324 -2.303721,1.186366 -3.393872,0.497543c-1.091658,-0.689971 -1.341689,-2.033754 -0.559753,-2.999272l0,0l14.326402,-17.671858l0.001845,-0.001122l-0.003082,-0.001073c1.302732,-1.604045 3.843149,-1.974709 5.660136,-0.825533c1.816996,1.150265 2.237227,3.395086 0.936337,5.000199l0,-0.001067l-15.704307,19.369925l0.001541,0.002199c-1.823461,2.248086 -5.379479,2.767457 -7.924867,1.157952c-2.545363,-1.612816 -3.131129,-4.75094 -1.309207,-7.001228l11.413104,-14.076674l-1.319108,-0.834254l-11.41277,14.076676c-2.347677,2.895407 -1.593278,6.922439 1.68548,8.995575c3.278741,2.075326 7.83729,1.408343 10.184966,-1.485943l15.703949,-19.371061c1.821968,-2.251356 1.237749,-5.384016 -1.312575,-6.9979l0,0.000001z" fill-opacity="null" stroke-opacity="null" stroke-width="1.5" stroke="#000" fill="#9ACEE6"/>
  <path id="svg_26" d="m1308.135516,85.249663c4.370209,0 8.479171,1.655421 11.565862,4.658533c3.09379,3.004485 4.794736,7.007719 4.794736,11.267852l6.73705,0c0,-12.37513 -10.363273,-22.440913 -23.099068,-22.440913l0,6.514528l0.00142,0zm0.008519,-11.550854c15.579696,0 28.251599,12.329794 28.251599,27.484108l6.734211,0c0,-18.746783 -15.694702,-34.000009 -34.98723,-34.000009l0,6.515901l0.00142,0zm9.314026,22.929983c0,2.493435 -2.088557,4.515659 -4.664112,4.515659s-4.664112,-2.022224 -4.664112,-4.515659c0,-2.490687 2.088556,-4.512911 4.664112,-4.512911s4.664112,2.02085 4.664112,4.512911z" stroke-opacity="null" stroke-width="1.5" stroke="#000" fill="#9ACEE6"/>
  <path id="svg_27" d="m1550.084965,156.142206l-1.062253,-3.750687c0.311303,-0.275482 0.60349,-0.570248 0.879294,-0.885675l3.715154,1.071625c0.39186,-0.575757 0.729104,-1.187327 1.03085,-1.822313l-2.764862,-2.699724c0.132441,-0.396694 0.247131,-0.800275 0.329053,-1.216253l3.726078,-0.942148c0.027307,-0.347108 0.053249,-0.695592 0.053249,-1.050964s-0.027308,-0.702479 -0.053249,-1.049586l-3.726078,-0.942149c-0.083287,-0.415978 -0.197978,-0.819559 -0.329053,-1.216253l2.766227,-2.699723c-0.303111,-0.633609 -0.640355,-1.246556 -1.032215,-1.822314l-3.715154,1.070248c-0.274438,-0.31405 -0.567991,-0.608815 -0.879294,-0.885675l1.062253,-3.74931c-0.570722,-0.393939 -1.178309,-0.735537 -1.807742,-1.039944l-2.676113,2.790632c-0.391859,-0.133608 -0.793276,-0.247933 -1.205616,-0.331955l-0.932543,-3.76033c-0.345437,-0.02617 -0.689509,-0.053719 -1.041773,-0.053719s-0.696335,0.027549 -1.040407,0.053719l-0.933908,3.76033c-0.41234,0.084022 -0.812392,0.198347 -1.205616,0.331955l-2.676113,-2.790632c-0.628067,0.30854 -1.234289,0.64876 -1.805011,1.044076l1.062253,3.74931c-0.311303,0.275482 -0.604856,0.571626 -0.877929,0.884298l-3.71652,-1.071625c-0.391859,0.575757 -0.729104,1.188704 -1.030849,1.82369l2.766226,2.699724c-0.131074,0.396694 -0.245765,0.800275 -0.329052,1.216253l-3.727443,0.942148c-0.025942,0.347108 -0.053249,0.695592 -0.053249,1.049587s0.027307,0.702479 0.053249,1.050964l3.727443,0.942148c0.083287,0.415978 0.197978,0.819559 0.329052,1.216253l-2.766226,2.699724c0.301745,0.633608 0.63899,1.246556 1.030849,1.822313l3.71652,-1.071625c0.273073,0.315427 0.566626,0.608815 0.877929,0.885675l-1.062253,3.750687c0.570722,0.393939 1.178309,0.734159 1.806376,1.039944l2.676113,-2.790632c0.393225,0.133609 0.793276,0.249311 1.205616,0.331956l0.933909,3.758951c0.344071,0.027549 0.689508,0.053719 1.041772,0.053719s0.696336,-0.027548 1.041773,-0.053719l0.932543,-3.758951c0.41234,-0.084022 0.813757,-0.199725 1.205616,-0.331956l2.676113,2.790632c0.626702,-0.308539 1.234289,-0.64876 1.805011,-1.042699zm-7.662421,-6.612945c-2.562788,0 -4.640871,-2.096418 -4.640871,-4.681817s2.078083,-4.680439 4.640871,-4.680439s4.639505,2.095041 4.639505,4.680439s-2.076718,4.681817 -4.639505,4.681817zm21.152213,9.786498c0.025942,-0.753444 -0.081921,-1.520661 -0.314033,-2.278236l1.698512,-2.442148c-0.256688,-0.482094 -0.546145,-0.939394 -0.875198,-1.355372l-2.897302,0.612948c-0.584375,-0.501378 -1.249307,-0.892562 -1.960662,-1.172176l-0.834237,-2.863635c-0.52703,-0.093664 -1.060888,-0.144629 -1.601572,-0.146006l-1.329864,2.666666c-0.380936,0.07438 -0.761873,0.176308 -1.135982,0.320936c-0.350899,0.134986 -0.678586,0.30303 -0.99262,0.486226l-2.738919,-1.128099c-0.405513,0.360882 -0.775527,0.750689 -1.110041,1.173554l1.238385,2.710742c-0.353629,0.681818 -0.596664,1.415978 -0.708624,2.183195l-2.581902,1.460055c0.025942,0.534435 0.103767,1.06887 0.223919,1.604682l2.872725,0.714876c0.315399,0.721763 0.738662,1.367768 1.250673,1.918732l-0.480608,2.944903c0.436917,0.316804 0.90114,0.589531 1.383114,0.826446l2.341599,-1.818182c0.731834,0.194215 1.497803,0.268595 2.269234,0.206612l1.982508,2.213498c0.273073,-0.078513 0.54478,-0.162535 0.813757,-0.26584c0.238938,-0.090909 0.464223,-0.198347 0.689508,-0.307163l0.050519,-2.982092c0.62124,-0.466942 1.151001,-1.028926 1.572899,-1.661157l2.95055,-0.184573c0.207536,-0.49449 0.380937,-1.008264 0.502454,-1.535812l-2.278792,-1.90358zm-5.684008,2.764461c-1.639802,0.630854 -3.474851,-0.198347 -4.101553,-1.852616s0.195247,-3.506886 1.835049,-4.139117c1.639802,-0.630854 3.477581,0.198347 4.104283,1.852617c0.625337,1.654269 -0.197978,3.506885 -1.837779,4.139116z" stroke-opacity="null" stroke-width="1.5" stroke="#000" fill="#9ACEE6"/>
  <path stroke="#000" id="svg_28" d="m1424.12238,148.128828l-6.3022,1.503436c-0.57745,-1.323434 -1.446868,-2.470596 -2.499037,-3.383663l3.33277,-5.073629c0.29305,-0.447673 0.112462,-1.018457 -0.410919,-1.273071c-0.517975,-0.252749 -1.178689,-0.09513 -1.470658,0.35161l-3.161914,4.814352c-0.653145,-0.357206 -1.340894,-0.642597 -2.054595,-0.835656c-0.449848,-1.340222 -1.786417,-2.248626 -3.306817,-2.389456c-0.001081,-0.003731 -0.002163,-0.007461 -0.003244,-0.011192c-0.065964,-0.225702 -0.100567,-0.42902 -0.105974,-0.606224c-0.005407,-0.176271 0.012976,-0.327361 0.049743,-0.446741c0.04001,-0.121244 0.085428,-0.219173 0.135171,-0.29565c0.157879,-0.24249 0.367664,-0.401041 0.623948,-0.47472c0.024871,0.262075 0.153554,0.449538 0.38064,0.560524c0.167612,0.082073 0.363339,0.107255 0.590426,0.080208c0.228168,-0.028912 0.406594,-0.141763 0.536358,-0.338553c0.113543,-0.173473 0.137333,-0.362802 0.069207,-0.56612c-0.069207,-0.204251 -0.219517,-0.361869 -0.447685,-0.472855c-0.166531,-0.081141 -0.339549,-0.122177 -0.521219,-0.120312c-0.180588,0.000933 -0.353606,0.03171 -0.520137,0.090467c-0.165449,0.058757 -0.320084,0.149225 -0.463906,0.269537c-0.14274,0.120312 -0.260609,0.252749 -0.35685,0.39731c-0.142741,0.21824 -0.233575,0.462595 -0.270342,0.730267c-0.035685,0.266738 -0.04001,0.526948 -0.009732,0.783428c0.018383,0.149224 0.065963,0.280728 0.101648,0.418761c-0.405512,-0.019586 -0.819675,0.001865 -1.232757,0.100726c-0.521218,0.124043 -0.987287,0.335755 -1.384148,0.609022c-0.056231,-0.160416 -0.105974,-0.320832 -0.194646,-0.483114c-0.125439,-0.23223 -0.284399,-0.453269 -0.473639,-0.667779c-0.192483,-0.213577 -0.415244,-0.382387 -0.668284,-0.50643c-0.16653,-0.080208 -0.347118,-0.140831 -0.541764,-0.180935c-0.194646,-0.040104 -0.380641,-0.048498 -0.557985,-0.025181s-0.343874,0.074612 -0.500672,0.152955c-0.15788,0.078342 -0.281155,0.191193 -0.376316,0.332956c-0.128682,0.19679 -0.162204,0.399176 -0.101648,0.603427c0.062719,0.206116 0.195727,0.358138 0.396861,0.456999c0.227087,0.110986 0.448767,0.128706 0.660715,0.052229c0.211948,-0.076478 0.36442,-0.185598 0.45958,-0.331092c0.128683,-0.195857 0.127602,-0.413165 -0.007569,-0.648193c0.263853,-0.051296 0.537439,-0.007461 0.818594,0.131504c0.087591,0.041969 0.184913,0.107255 0.291969,0.193991c0.104892,0.085805 0.208703,0.207049 0.30927,0.36187c0.101649,0.15482 0.193565,0.343216 0.271423,0.567052c0.014058,0.041037 0.024872,0.0914 0.037848,0.136168c-0.985124,0.772236 -1.467414,1.947378 -1.18734,3.130914c-0.629355,0.544669 -1.159224,1.184468 -1.57555,1.897948l-5.579848,-2.728941c-0.519056,-0.252749 -1.180852,-0.095131 -1.474983,0.35161c-0.29305,0.449538 -0.1103,1.020321 0.408756,1.274935l5.883712,2.874435c-0.357932,1.249755 -0.418489,2.617956 -0.12652,4.007608l-6.3022,1.504368c-0.57745,0.1371 -0.914836,0.651924 -0.754794,1.148095c0.158961,0.494306 0.753712,0.786226 1.331162,0.647261l6.35735,-1.517425c0.543927,0.985813 1.473902,2.126447 2.563919,3.211122l-3.453883,5.259227c-0.294132,0.448606 -0.112462,1.018457 0.408756,1.271206c0.258447,0.127773 0.553659,0.151089 0.819675,0.087669c0.268179,-0.06342 0.507161,-0.213577 0.653146,-0.439279l3.130554,-4.764922c2.919688,2.419301 6.146484,3.845326 6.248132,0.982083c1.728023,2.387591 3.731794,-0.315236 4.86831,-3.708226l5.626346,2.748527c0.259528,0.128706 0.555823,0.15109 0.824001,0.087669c0.266016,-0.062487 0.504998,-0.213577 0.652064,-0.439279c0.294132,-0.446741 0.112462,-1.017524 -0.407675,-1.270273l-6.164867,-3.011534c0.314677,-1.403642 0.456336,-2.782103 0.344956,-3.859316l6.364919,-1.517426c0.573124,-0.1371 0.915917,-0.650059 0.752631,-1.14623c-0.160042,-0.496171 -0.756956,-0.787158 -1.332243,-0.650059z" stroke-opacity="null" stroke-width="1.5" fill="#9ACEE6"/>
  <path stroke="#000" id="svg_29" d="m1501.928264,59.165494l-34.305825,0l17.152913,10.863576l17.152912,-10.863576zm-16.137469,15.491447c-0.315185,0.200215 -0.664629,0.301086 -1.014073,0.301086s-0.698888,-0.100871 -1.015444,-0.301086l-17.484541,-11.069905l0,22.578448l36.99997,0l0,-22.578448l-17.485912,11.069905z" stroke-opacity="null" stroke-width="1.5" fill="#9ACEE6"/>
  <path id="svg_45" d="m64.605576,203.466783l-134.441853,0l67.220927,54.317896l67.220927,-54.317896zm-63.241482,77.457259c-1.235185,1.001075 -2.60463,1.505434 -3.974074,1.505434s-2.738889,-0.504359 -3.979444,-1.505434l-68.520556,-55.349539l0,112.892274l145.000002,0l0,-112.892274l-68.525927,55.349539z" fill-opacity="null" stroke-opacity="null" stroke-width="1.5" stroke="#000" fill="#9ACEE6"/>
  <path id="svg_46" d="m66.564634,41.972762c0,0 2.142105,-9.866258 0,-13.208418c-2.144628,-3.34216 -2.999956,-5.568392 -7.715614,-7.162172s-2.997433,-1.276148 -6.426315,-1.113116c-3.428882,0.160221 -6.287545,2.226233 -6.287545,3.339349c0,0 -2.142105,0.160221 -2.997433,1.115927c-0.857851,0.955706 -2.285921,5.408171 -2.285921,6.524098s0.714035,8.595731 1.42807,10.186701l-0.850282,0.317632c-0.714035,9.228184 2.85614,10.344111 2.85614,10.344111c1.284254,8.595731 2.57103,4.93594 2.57103,7.162172s-1.286777,1.433559 -1.286777,1.433559s-1.140437,3.49957 -3.996577,4.772908c-2.85614,1.270527 -18.711248,8.112257 -20.000548,9.545815c-1.2893,1.43637 -1.142961,8.117878 -1.142961,8.117878l67.989752,0c0,0 0.148862,-6.681509 -1.140437,-8.117878c-1.291823,-1.43637 -17.146931,-8.275289 -20.003071,-9.545815c-2.85614,-1.273338 -3.996577,-4.772908 -3.996577,-4.772908s-1.286777,0.792674 -1.286777,-1.433559s1.286777,1.433559 2.573554,-7.162172c0,0 3.567652,-1.115927 2.85614,-10.344111l-0.857851,0z" stroke-opacity="null" stroke-width="1.5" stroke="#000" fill="#000000"/>
 </g>
</svg>